<svg xmlns="http://www.w3.org/2000/svg" xmlns:xlink="http://www.w3.org/1999/xlink" width="512" height="512" x="0" y="0" viewBox="0 0 75 75" style="enable-background:new 0 0 512 512" xml:space="preserve" class=""><g><path d="m66.6 13.9-9.2-4.7c-3.4-1.7-7.5-1.4-10.6.8L39 6c-2.3-1.2-5.2-.2-6.3 2.1L5 62.6c-1.2 2.3-.2 5.2 2.1 6.3.7.3 1.4.5 2.1.5.5 0 1-.1 1.5-.2 1.2-.4 2.2-1.2 2.7-2.3l25.5-50.3 3.6 1.9c0 3.8 2.2 7.3 5.6 9l9.2 4.7c.9.5 1.9.7 2.9.7 3.3 0 6.9-2.3 8.8-6.2 2.7-5.1 1.6-10.8-2.4-12.8zm-29 .9L11.6 66c-.3.6-.9 1.1-1.6 1.3s-1.4.2-2.1-.2c-1.3-.7-1.9-2.3-1.2-3.6L34.4 9c.5-.9 1.4-1.5 2.4-1.5.4 0 .8.1 1.2.3l7.5 3.8-2.5 4.8-4.2-2.1c-.4-.2-1 0-1.2.5zm7 3.3 3.1-6.2c2.5-2 5.9-2.3 8.8-.9l5 2.6c-2.6.8-5.1 2.8-6.6 5.8-1.2 2.4-1.6 5-1.2 7.4.1.5.2 1 .4 1.4l-5-2.5c-2.9-1.5-4.7-4.4-4.5-7.6zm22.7 7.6c-2.1 4-6.1 6.1-9.1 4.6-1.4-.7-2.3-2.1-2.6-3.9-.3-1.9 0-4.1 1-6.1 1.6-3.1 4.4-5.1 7-5.1.7 0 1.4.1 2 .5 3.1 1.5 3.8 6 1.7 10z" fill="#ffffff" opacity="1" data-original="#000000"></path><path d="M64.9 18.6c-.2-.4-.6-.6-1.1-.5l-3.6.7c-.3.1-.6.3-.7.5l-2 4c-.1.3-.1.6 0 .9l1.6 3.3c.2.4.5.6.9.6h.2l3.6-.7c.3-.1.6-.3.7-.5l2-4c.1-.3.1-.6 0-.9zm-2 6.9-2.4.4-1-2.2 1.6-3.1 2.4-.4 1 2.2z" fill="#ffffff" opacity="1" data-original="#000000"></path></g></svg>